mtllib soccer_ball.mtl
o SoccerBall_TruncatedIcosahedron
v -0.7300256 0.6529547 0.2017741
v -0.8547288 0.3264774 0.4035482
v -0.6529547 0.2017741 0.7300256
v -0.3264774 0.4035482 0.8547288
v -0.2017741 0.7300256 0.6529547
v -0.4035482 0.8547288 0.3264774
v 0.2017741 0.7300256 0.6529547
v 0.4035482 0.8547288 0.3264774
v 0.2017741 0.9794321 0.0000000
v -0.2017741 0.9794321 0.0000000
v 0.4035482 0.8547288 -0.3264774
v 0.2017741 0.7300256 -0.6529547
v -0.2017741 0.7300256 -0.6529547
v -0.4035482 0.8547288 -0.3264774
v -0.3264774 0.4035482 -0.8547288
v -0.6529547 0.2017741 -0.7300256
v -0.8547288 0.3264774 -0.4035482
v -0.7300256 0.6529547 -0.2017741
v -0.9794321 0.0000000 -0.2017741
v -0.9794321 0.0000000 0.2017741
v 0.3264774 0.4035482 0.8547288
v 0.6529547 0.2017741 0.7300256
v 0.8547288 0.3264774 0.4035482
v 0.7300256 0.6529547 0.2017741
v -0.6529547 -0.2017741 0.7300256
v -0.3264774 -0.4035482 0.8547288
v 0.0000000 -0.2017741 0.9794321
v 0.0000000 0.2017741 0.9794321
v -0.8547288 -0.3264774 -0.4035482
v -0.7300256 -0.6529547 -0.2017741
v -0.7300256 -0.6529547 0.2017741
v -0.8547288 -0.3264774 0.4035482
v 0.0000000 0.2017741 -0.9794321
v 0.0000000 -0.2017741 -0.9794321
v -0.3264774 -0.4035482 -0.8547288
v -0.6529547 -0.2017741 -0.7300256
v 0.7300256 0.6529547 -0.2017741
v 0.8547288 0.3264774 -0.4035482
v 0.6529547 0.2017741 -0.7300256
v 0.3264774 0.4035482 -0.8547288
v 0.7300256 -0.6529547 0.2017741
v 0.8547288 -0.3264774 0.4035482
v 0.6529547 -0.2017741 0.7300256
v 0.3264774 -0.4035482 0.8547288
v 0.2017741 -0.7300256 0.6529547
v 0.4035482 -0.8547288 0.3264774
v -0.2017741 -0.7300256 0.6529547
v -0.4035482 -0.8547288 0.3264774
v -0.2017741 -0.9794321 0.0000000
v 0.2017741 -0.9794321 0.0000000
v -0.4035482 -0.8547288 -0.3264774
v -0.2017741 -0.7300256 -0.6529547
v 0.2017741 -0.7300256 -0.6529547
v 0.4035482 -0.8547288 -0.3264774
v 0.3264774 -0.4035482 -0.8547288
v 0.6529547 -0.2017741 -0.7300256
v 0.8547288 -0.3264774 -0.4035482
v 0.7300256 -0.6529547 -0.2017741
v 0.9794321 0.0000000 -0.2017741
v 0.9794321 0.0000000 0.2017741
usemtl warm_white
f 1 2 3 4 5 6
f 6 5 7 8 9 10
f 10 9 11 12 13 14
f 14 13 15 16 17 18
f 18 17 19 20 2 1
f 8 7 21 22 23 24
f 4 3 25 26 27 28
f 20 19 29 30 31 32
f 16 15 33 34 35 36
f 12 11 37 38 39 40
f 41 42 43 44 45 46
f 46 45 47 48 49 50
f 50 49 51 52 53 54
f 54 53 55 56 57 58
f 58 57 59 60 42 41
f 44 43 22 21 28 27
f 48 47 26 25 32 31
f 52 51 30 29 36 35
f 56 55 34 33 40 39
f 60 59 38 37 24 23
usemtl charcoal
f 1 6 10 14 18
f 8 24 37 11 9
f 48 31 30 51 49
f 41 46 50 54 58
f 44 27 26 47 45
f 4 28 21 7 5
f 53 52 35 34 55
f 13 12 40 33 15
f 38 59 57 56 39
f 22 43 42 60 23
f 29 19 17 16 36
f 25 3 2 20 32
